C:\Users\r0593348\3dpredictsim\Results\Batchsim_tmt_linear_v2\Pog_s1_tmt_bCst_d02_k500_ig24_pas_GRF.mot
nRows=17
nColumns=19

name C:\Users\r0593348\3dpredictsim\Results\Batchsim_tmt_linear_v2\Pog_s1_tmt_bCst_d02_k500_ig24_pas_GRF.mot
datacolumns 19
datarows 17
range 0.5484703049 0.7239808024
endheader
time 	ground_force_vx	ground_force_vy	ground_force_vz	ground_force_px	ground_force_py	ground_force_pz	1_ground_force_vx	1_ground_force_vy	1_ground_force_vz	1_ground_force_px	1_ground_force_py	1_ground_force_pz	ground_torque_x	ground_torque_y	ground_torque_z	1_ground_torque_x	1_ground_torque_y	1_ground_torque_z
        0.5484703049	       97.6483210418	      413.5285858810	       -1.7325815128	        0.3331642818	        0.0000000000	        0.0437751131	      -76.3988003301	       60.5074459187	      -20.0729852215	        0.8469669753	        0.0000000000	       -0.0453599517	        0.0000000000	        0.0000000000	        0.0000000000	        0.0000000000	        0.0000000000	        0.0000000000	
        0.5594397110	       58.3899227916	      302.7710095713	        4.4768531319	        0.3529011944	        0.0000000000	        0.0399092864	     -137.7477610724	      143.6764604695	      -52.3954818427	        0.8546136632	        0.0000000000	       -0.0436541648	        0.0000000000	        0.0000000000	        0.0000000000	        0.0000000000	        0.0000000000	        0.0000000000	
        0.5704091171	       22.8737998656	      201.4203588233	        8.7982325035	        0.3835624857	        0.0000000000	        0.0327378414	      -70.3177868754	      309.4199795688	      -20.1083887927	        0.8609960427	        0.0000000000	       -0.0419536753	        0.0000000000	        0.0000000000	        0.0000000000	        0.0000000000	        0.0000000000	        0.0000000000	
        0.5813785232	        2.3672261687	      147.7227530088	       10.9497904019	        0.4056776547	        0.0000000000	        0.0254305457	      -73.5764657849	      521.6158468799	        0.9204175350	        0.8665275969	        0.0000000000	       -0.0426616243	        0.0000000000	        0.0000000000	        0.0000000000	        0.0000000000	        0.0000000000	        0.0000000000	
        0.5923479292	       -0.3260539542	      116.7715952274	       10.6039105415	        0.4054656865	        0.0000000000	        0.0257449003	     -114.8638099216	      789.1564507237	       14.4581591547	        0.8767355137	        0.0000000000	       -0.0454815700	        0.0000000000	        0.0000000000	        0.0000000000	        0.0000000000	        0.0000000000	        0.0000000000	
        0.6033173353	       -3.2531243330	       77.0425317280	        9.9455907598	        0.4059447490	        0.0000000000	        0.0258490912	     -140.6039364954	      954.6647073856	       20.5109185831	        0.8835623089	        0.0000000000	       -0.0472874563	        0.0000000000	        0.0000000000	        0.0000000000	        0.0000000000	        0.0000000000	        0.0000000000	
        0.6142867414	       -8.0813900300	       32.3659057246	        6.1386295951	        0.4056858180	        0.0000000000	        0.0258900916	     -143.7705157000	      986.4318545492	       21.0942336039	        0.8882180025	        0.0000000000	       -0.0484095238	        0.0000000000	        0.0000000000	        0.0000000000	        0.0000000000	        0.0000000000	        0.0000000000	
        0.6252561475	        0.1320196980	       -0.1335290750	       -0.0094335230	        0.0000000000	        0.0000000000	        0.0000000000	     -131.6849987154	      943.6391063967	       21.0740427206	        0.8919840442	        0.0000000000	       -0.0491706929	        0.0000000000	        0.0000000000	        0.0000000000	        0.0000000000	        0.0000000000	        0.0000000000	
        0.6362255536	        0.0001702397	       -0.0001418129	        0.0000040954	        0.0000000000	        0.0000000000	        0.0000000000	     -113.9559223967	      877.5648687987	       19.7219595988	        0.8957908857	        0.0000000000	       -0.0497641969	        0.0000000000	        0.0000000000	        0.0000000000	        0.0000000000	        0.0000000000	        0.0000000000	
        0.6471949597	        0.0000911301	       -0.0000664327	        0.0000038705	        0.0000000000	        0.0000000000	        0.0000000000	     -100.5509846056	      822.1547236869	       18.9968978540	        0.9003549783	        0.0000000000	       -0.0504692694	        0.0000000000	        0.0000000000	        0.0000000000	        0.0000000000	        0.0000000000	        0.0000000000	
        0.6581643658	        0.0008955824	       -0.0005854910	        0.0000455635	        0.0000000000	        0.0000000000	        0.0000000000	      -92.3784447536	      785.0308824379	       18.4755054214	        0.9061784015	        0.0000000000	       -0.0507950294	        0.0000000000	        0.0000000000	        0.0000000000	        0.0000000000	        0.0000000000	        0.0000000000	
        0.6691337719	        0.0083193643	       -0.0049820618	        0.0004560975	        0.0000000000	        0.0000000000	        0.0000000000	      -83.1613821479	      747.1536269846	       17.9479495885	        0.9120694084	        0.0000000000	       -0.0508811034	        0.0000000000	        0.0000000000	        0.0000000000	        0.0000000000	        0.0000000000	        0.0000000000	
        0.6801031780	       -0.0526350604	        0.0293523847	       -0.0030004472	        0.0000000000	        0.0000000000	        0.0000000000	      -74.4054101179	      709.8282364773	       17.6314733983	        0.9177210066	        0.0000000000	       -0.0508541701	        0.0000000000	        0.0000000000	        0.0000000000	        0.0000000000	        0.0000000000	        0.0000000000	
        0.6910725841	       -0.0359433836	        0.0188773709	       -0.0021005054	        0.0000000000	        0.0000000000	        0.0000000000	      -66.3224718745	      678.6390635976	       17.2812212829	        0.9232362602	        0.0000000000	       -0.0507144615	        0.0000000000	        0.0000000000	        0.0000000000	        0.0000000000	        0.0000000000	        0.0000000000	
        0.7020419902	       -0.0243952622	        0.0121626144	       -0.0014506299	        0.0000000000	        0.0000000000	        0.0000000000	      -58.4629042486	      654.2863818557	       17.2681356220	        0.9285594922	        0.0000000000	       -0.0505637469	        0.0000000000	        0.0000000000	        0.0000000000	        0.0000000000	        0.0000000000	        0.0000000000	
        0.7130113963	       -0.0205900963	        0.0098068133	       -0.0012374869	        0.0000000000	        0.0000000000	        0.0000000000	      -51.8113402967	      635.6216780220	       17.5821648713	        0.9336590306	        0.0000000000	       -0.0504023227	        0.0000000000	        0.0000000000	        0.0000000000	        0.0000000000	        0.0000000000	        0.0000000000	
        0.7239808024	       -0.0224635583	        0.0102762090	       -0.0013627887	        0.0000000000	        0.0000000000	        0.0000000000	      -46.7723462359	      622.0261895405	       18.1257381995	        0.9384608202	        0.0000000000	       -0.0502151288	        0.0000000000	        0.0000000000	        0.0000000000	        0.0000000000	        0.0000000000	        0.0000000000	
